<?xml version="1.0" encoding="UTF-8"?>
<svg xmlns="http://www.w3.org/2000/svg" width="191" height="38" viewBox="0 0 191 38" fill="none">
  <path d="M35.9106 21.4434L33.0039 16.3095H31.7582V21.4434H29.1158V8.26906H34.0609C35.0801 8.26906 35.9483 8.45151 36.6656 8.81641C37.3828 9.16873 37.9176 9.65318 38.2699 10.2697C38.6348 10.8737 38.8172 11.5532 38.8172 12.3082C38.8172 13.1764 38.5656 13.9628 38.0623 14.6675C37.5589 15.3595 36.8103 15.8377 35.8162 16.1019L38.9682 21.4434H35.9106ZM31.7582 14.3277H33.9665C34.6837 14.3277 35.2185 14.1579 35.5708 13.8181C35.9232 13.4658 36.0993 12.9814 36.0993 12.3648C36.0993 11.7608 35.9232 11.2952 35.5708 10.9681C35.2185 10.6284 34.6837 10.4585 33.9665 10.4585H31.7582V14.3277ZM43.8496 10.4019V13.7049H48.2851V15.7999H43.8496V19.2917H48.8513V21.4434H41.2072V8.25018H48.8513V10.4019H43.8496ZM55.8013 21.5755C54.8828 21.5755 54.0523 21.4182 53.3099 21.1036C52.5801 20.789 52.0013 20.3361 51.5735 19.7447C51.1457 19.1533 50.9255 18.4549 50.9129 17.6496H53.744C53.7818 18.1907 53.9705 18.6185 54.3103 18.9331C54.6626 19.2476 55.1407 19.4049 55.7447 19.4049C56.3613 19.4049 56.8457 19.2602 57.1981 18.9708C57.5504 18.6688 57.7265 18.2788 57.7265 17.8006C57.7265 17.4105 57.607 17.0897 57.3679 16.838C57.1288 16.5864 56.8269 16.3913 56.462 16.2529C56.1096 16.1019 55.6189 15.9383 54.9898 15.7622C54.1341 15.5105 53.4358 15.2652 52.8947 15.0261C52.3662 14.7744 51.9069 14.4032 51.5169 13.9125C51.1394 13.4092 50.9506 12.7423 50.9506 11.9118C50.9506 11.1317 51.1457 10.4522 51.5357 9.87338C51.9258 9.29456 52.4732 8.85416 53.1778 8.55217C53.8825 8.2376 54.6878 8.08031 55.5937 8.08031C56.9527 8.08031 58.0537 8.41376 58.8967 9.08065C59.7524 9.73496 60.2242 10.6535 60.3123 11.8363H57.4057C57.3805 11.3833 57.1855 11.0121 56.8206 10.7227C56.4682 10.4207 55.9964 10.2697 55.405 10.2697C54.8891 10.2697 54.4739 10.4019 54.1593 10.6661C53.8573 10.9303 53.7063 11.3141 53.7063 11.8174C53.7063 12.1698 53.8195 12.4655 54.046 12.7045C54.2851 12.931 54.5745 13.1198 54.9143 13.2708C55.2666 13.4092 55.7573 13.5728 56.3865 13.7615C57.2421 14.0132 57.9404 14.2648 58.4815 14.5165C59.0226 14.7681 59.4881 15.1456 59.8782 15.6489C60.2683 16.1522 60.4633 16.8128 60.4633 17.6307C60.4633 18.3354 60.2809 18.9897 59.916 19.5937C59.5511 20.1977 59.0163 20.6821 58.3116 21.047C57.607 21.3993 56.7702 21.5755 55.8013 21.5755ZM68.8695 21.5755C67.6364 21.5755 66.5039 21.2861 65.4721 20.7073C64.4403 20.1284 63.6224 19.3294 63.0184 18.3102C62.4145 17.2784 62.1125 16.1145 62.1125 14.8185C62.1125 13.535 62.4145 12.3837 63.0184 11.3645C63.6224 10.3327 64.4403 9.52735 65.4721 8.94853C66.5039 8.36972 67.6364 8.08031 68.8695 8.08031C70.1152 8.08031 71.2477 8.36972 72.2669 8.94853C73.2987 9.52735 74.1103 10.3327 74.7017 11.3645C75.3056 12.3837 75.6076 13.535 75.6076 14.8185C75.6076 16.1145 75.3056 17.2784 74.7017 18.3102C74.1103 19.3294 73.2987 20.1284 72.2669 20.7073C71.2351 21.2861 70.1026 21.5755 68.8695 21.5755ZM68.8695 19.2162C69.6622 19.2162 70.3606 19.04 70.9645 18.6877C71.5685 18.3228 72.0404 17.8069 72.3801 17.14C72.7199 16.4731 72.8897 15.6993 72.8897 14.8185C72.8897 13.9377 72.7199 13.1701 72.3801 12.5158C72.0404 11.8489 71.5685 11.3393 70.9645 10.987C70.3606 10.6346 69.6622 10.4585 68.8695 10.4585C68.0768 10.4585 67.3721 10.6346 66.7556 10.987C66.1516 11.3393 65.6797 11.8489 65.34 12.5158C65.0002 13.1701 64.8304 13.9377 64.8304 14.8185C64.8304 15.6993 65.0002 16.4731 65.34 17.14C65.6797 17.8069 66.1516 18.3228 66.7556 18.6877C67.3721 19.04 68.0768 19.2162 68.8695 19.2162ZM88.8415 21.4434H86.1991L80.2159 12.4025V21.4434H77.5735V8.25018H80.2159L86.1991 17.3099V8.25018H88.8415V21.4434ZM99.531 18.9331H94.284L93.4157 21.4434H90.6412L95.3787 8.25018H98.4552L103.193 21.4434H100.399L99.531 18.9331ZM98.8138 16.8191L96.9075 11.3078L95.0012 16.8191H98.8138ZM116.231 21.4434H113.589L107.606 12.4025V21.4434H104.963V8.25018H107.606L113.589 17.3099V8.25018H116.231V21.4434ZM127.808 8.26906V10.4019H124.297V21.4434H121.655V10.4019H118.144V8.26906H127.808ZM136.876 19.3483H141.217V21.4434H134.233V8.26906H136.876V19.3483ZM149.012 21.5755C147.779 21.5755 146.646 21.2861 145.614 20.7073C144.583 20.1284 143.765 19.3294 143.161 18.3102C142.557 17.2784 142.255 16.1145 142.255 14.8185C142.255 13.535 142.557 12.3837 143.161 11.3645C143.765 10.3327 144.583 9.52735 145.614 8.94853C146.646 8.36972 147.779 8.08031 149.012 8.08031C150.257 8.08031 151.39 8.36972 152.409 8.94853C153.441 9.52735 154.253 10.3327 154.844 11.3645C155.448 12.3837 155.75 13.535 155.75 14.8185C155.75 16.1145 155.448 17.2784 154.844 18.3102C154.253 19.3294 153.441 20.1284 152.409 20.7073C151.377 21.2861 150.245 21.5755 149.012 21.5755ZM149.012 19.2162C149.805 19.2162 150.503 19.04 151.107 18.6877C151.711 18.3228 152.183 17.8069 152.522 17.14C152.862 16.4731 153.032 15.6993 153.032 14.8185C153.032 13.9377 152.862 13.1701 152.522 12.5158C152.183 11.8489 151.711 11.3393 151.107 10.987C150.503 10.6346 149.805 10.4585 149.012 10.4585C148.219 10.4585 147.514 10.6346 146.898 10.987C146.294 11.3393 145.822 11.8489 145.482 12.5158C145.143 13.1701 144.973 13.9377 144.973 14.8185C144.973 15.6993 145.143 16.4731 145.482 17.14C145.822 17.8069 146.294 18.3228 146.898 18.6877C147.514 19.04 148.219 19.2162 149.012 19.2162ZM166.889 12.2327C166.587 11.679 166.172 11.2575 165.643 10.9681C165.115 10.6787 164.498 10.534 163.793 10.534C163.013 10.534 162.321 10.7101 161.717 11.0625C161.113 11.4148 160.641 11.9181 160.302 12.5724C159.962 13.2267 159.792 13.9817 159.792 14.8373C159.792 15.7181 159.962 16.4857 160.302 17.14C160.654 17.7943 161.138 18.2976 161.755 18.65C162.371 19.0023 163.089 19.1784 163.907 19.1784C164.913 19.1784 165.737 18.9142 166.379 18.3857C167.021 17.8446 167.442 17.096 167.644 16.1397H163.114V14.1201H170.248V16.4228C170.072 17.3413 169.695 18.1907 169.116 18.9708C168.537 19.751 167.788 20.3801 166.87 20.8583C165.964 21.3238 164.945 21.5566 163.812 21.5566C162.541 21.5566 161.39 21.2735 160.358 20.7073C159.339 20.1284 158.534 19.3294 157.942 18.3102C157.363 17.291 157.074 16.1334 157.074 14.8373C157.074 13.5413 157.363 12.3837 157.942 11.3645C158.534 10.3327 159.339 9.53364 160.358 8.96741C161.39 8.38859 162.535 8.09919 163.793 8.09919C165.278 8.09919 166.568 8.46409 167.663 9.1939C168.757 9.91113 169.512 10.924 169.928 12.2327H166.889ZM174.846 8.26906V21.4434H172.203V8.26906H174.846ZM176.815 14.8373C176.815 13.5413 177.104 12.3837 177.683 11.3645C178.274 10.3327 179.073 9.53364 180.08 8.96741C181.099 8.38859 182.238 8.09919 183.496 8.09919C184.968 8.09919 186.258 8.47667 187.366 9.23165C188.473 9.98662 189.247 11.031 189.687 12.3648H186.648C186.346 11.7356 185.918 11.2638 185.365 10.9492C184.824 10.6346 184.195 10.4774 183.477 10.4774C182.71 10.4774 182.024 10.6598 181.42 11.0247C180.829 11.377 180.363 11.8803 180.023 12.5347C179.696 13.189 179.533 13.9565 179.533 14.8373C179.533 15.7056 179.696 16.4731 180.023 17.14C180.363 17.7943 180.829 18.3039 181.42 18.6688C182.024 19.0211 182.71 19.1973 183.477 19.1973C184.195 19.1973 184.824 19.04 185.365 18.7255C185.918 18.3983 186.346 17.9201 186.648 17.291H189.687C189.247 18.6374 188.473 19.688 187.366 20.443C186.271 21.1854 184.981 21.5566 183.496 21.5566C182.238 21.5566 181.099 21.2735 180.08 20.7073C179.073 20.1284 178.274 19.3294 177.683 18.3102C177.104 17.291 176.815 16.1334 176.815 14.8373Z" fill="white"></path>
  <path d="M30.2211 26.5961V34.3684H28.9462V26.5961H30.2211ZM35.0038 28.1058C35.4884 28.1058 35.9208 28.2064 36.3011 28.4077C36.6888 28.609 36.9907 28.9073 37.2069 29.3024C37.4231 29.6975 37.5312 30.1747 37.5312 30.7339V34.3684H36.2675V30.924C36.2675 30.3723 36.1296 29.951 35.8537 29.6603C35.5779 29.362 35.2014 29.2129 34.7242 29.2129C34.2471 29.2129 33.8668 29.362 33.5835 29.6603C33.3077 29.951 33.1698 30.3723 33.1698 30.924V34.3684H31.8949V28.2064H33.1698V28.911C33.3785 28.6575 33.6432 28.4599 33.9638 28.3183C34.2918 28.1766 34.6385 28.1058 35.0038 28.1058ZM40.6448 29.2465V32.6574C40.6448 32.8885 40.697 33.0562 40.8014 33.1606C40.9132 33.2575 41.0996 33.306 41.3605 33.306H42.1434V34.3684H41.1369C40.5628 34.3684 40.1229 34.2342 39.8172 33.9658C39.5116 33.6974 39.3587 33.2613 39.3587 32.6574V29.2465H38.6318V28.2064H39.3587V26.6743H40.6448V28.2064H42.1434V29.2465H40.6448ZM48.9659 31.1365C48.9659 31.3676 48.951 31.5763 48.9212 31.7627H44.213C44.2503 32.2548 44.433 32.6499 44.761 32.9481C45.0891 33.2464 45.4917 33.3955 45.9688 33.3955C46.6547 33.3955 47.1393 33.1084 47.4226 32.5344H48.7982C48.6118 33.101 48.2726 33.5669 47.7805 33.9323C47.2959 34.2901 46.692 34.4691 45.9688 34.4691C45.3798 34.4691 44.8505 34.3386 44.3808 34.0776C43.9185 33.8092 43.5532 33.4365 43.2848 32.9593C43.0239 32.4747 42.8934 31.9156 42.8934 31.2818C42.8934 30.6481 43.0202 30.0927 43.2736 29.6155C43.5346 29.1309 43.8962 28.7581 44.3584 28.4972C44.8281 28.2363 45.3649 28.1058 45.9688 28.1058C46.5503 28.1058 47.0685 28.2325 47.5233 28.486C47.9781 28.7395 48.3322 29.0974 48.5857 29.5596C48.8392 30.0144 48.9659 30.54 48.9659 31.1365ZM47.6351 30.7339C47.6277 30.2642 47.4599 29.8877 47.1319 29.6043C46.8038 29.321 46.3975 29.1794 45.9129 29.1794C45.473 29.1794 45.0965 29.321 44.7834 29.6043C44.4703 29.8802 44.2839 30.2567 44.2242 30.7339H47.6351ZM51.4954 26.0928V34.3684H50.2205V26.0928H51.4954ZM54.4441 26.0928V34.3684H53.1692V26.0928H54.4441ZM56.7666 27.3901C56.5355 27.3901 56.3416 27.3118 56.185 27.1552C56.0285 26.9987 55.9502 26.8048 55.9502 26.5737C55.9502 26.3426 56.0285 26.1487 56.185 25.9922C56.3416 25.8356 56.5355 25.7573 56.7666 25.7573C56.9902 25.7573 57.1804 25.8356 57.3369 25.9922C57.4935 26.1487 57.5718 26.3426 57.5718 26.5737C57.5718 26.8048 57.4935 26.9987 57.3369 27.1552C57.1804 27.3118 56.9902 27.3901 56.7666 27.3901ZM57.3928 28.2064V34.3684H56.1179V28.2064H57.3928ZM61.5493 28.1058C62.0265 28.1058 62.4477 28.2027 62.813 28.3966C63.1858 28.5829 63.4766 28.8178 63.6853 29.1011V28.2064H64.9714V34.4691C64.9714 35.0357 64.8521 35.5389 64.6135 35.9788C64.375 36.4261 64.0283 36.7765 63.5735 37.03C63.1262 37.2835 62.5894 37.4102 61.9631 37.4102C61.1281 37.4102 60.4347 37.2127 59.883 36.8175C59.3313 36.4299 59.0182 35.9005 58.9436 35.2295H60.2073C60.3043 35.5501 60.5093 35.8073 60.8224 36.0012C61.143 36.2025 61.5232 36.3031 61.9631 36.3031C62.4775 36.3031 62.8913 36.1465 63.2045 35.8334C63.525 35.5203 63.6853 35.0655 63.6853 34.4691V33.4402C63.4691 33.731 63.1746 33.977 62.8019 34.1783C62.4365 34.3721 62.019 34.4691 61.5493 34.4691C61.0125 34.4691 60.5205 34.3349 60.0731 34.0665C59.6333 33.7906 59.2829 33.4104 59.0219 32.9258C58.7684 32.4337 58.6417 31.8783 58.6417 31.2595C58.6417 30.6407 58.7684 30.0927 59.0219 29.6155C59.2829 29.1384 59.6333 28.7693 60.0731 28.5084C60.5205 28.24 61.0125 28.1058 61.5493 28.1058ZM63.6853 31.2818C63.6853 30.8569 63.5959 30.4878 63.4169 30.1747C63.2455 29.8616 63.0181 29.623 62.7348 29.459C62.4514 29.2949 62.1458 29.2129 61.8177 29.2129C61.4897 29.2129 61.184 29.2949 60.9007 29.459C60.6174 29.6155 60.3863 29.8504 60.2073 30.1635C60.0359 30.4692 59.9501 30.8345 59.9501 31.2595C59.9501 31.6844 60.0359 32.0572 60.2073 32.3778C60.3863 32.6984 60.6174 32.9444 60.9007 33.1159C61.1915 33.2799 61.4971 33.3619 61.8177 33.3619C62.1458 33.3619 62.4514 33.2799 62.7348 33.1159C63.0181 32.9519 63.2455 32.7133 63.4169 32.4002C63.5959 32.0796 63.6853 31.7068 63.6853 31.2818ZM72.2935 31.1365C72.2935 31.3676 72.2785 31.5763 72.2487 31.7627H67.5406C67.5779 32.2548 67.7605 32.6499 68.0886 32.9481C68.4166 33.2464 68.8192 33.3955 69.2963 33.3955C69.9823 33.3955 70.4669 33.1084 70.7502 32.5344H72.1257C71.9393 33.101 71.6001 33.5669 71.108 33.9323C70.6234 34.2901 70.0195 34.4691 69.2963 34.4691C68.7074 34.4691 68.178 34.3386 67.7083 34.0776C67.2461 33.8092 66.8808 33.4365 66.6124 32.9593C66.3514 32.4747 66.221 31.9156 66.221 31.2818C66.221 30.6481 66.3477 30.0927 66.6012 29.6155C66.8621 29.1309 67.2237 28.7581 67.686 28.4972C68.1557 28.2363 68.6925 28.1058 69.2963 28.1058C69.8779 28.1058 70.396 28.2325 70.8508 28.486C71.3056 28.7395 71.6597 29.0974 71.9132 29.5596C72.1667 30.0144 72.2935 30.54 72.2935 31.1365ZM70.9626 30.7339C70.9552 30.2642 70.7874 29.8877 70.4594 29.6043C70.1314 29.321 69.725 29.1794 69.2404 29.1794C68.8006 29.1794 68.4241 29.321 68.1109 29.6043C67.7978 29.8802 67.6114 30.2567 67.5518 30.7339H70.9626ZM76.657 28.1058C77.1416 28.1058 77.574 28.2064 77.9543 28.4077C78.342 28.609 78.6439 28.9073 78.8601 29.3024C79.0763 29.6975 79.1844 30.1747 79.1844 30.7339V34.3684H77.9207V30.924C77.9207 30.3723 77.7828 29.951 77.5069 29.6603C77.2311 29.362 76.8546 29.2129 76.3774 29.2129C75.9003 29.2129 75.5201 29.362 75.2367 29.6603C74.9609 29.951 74.823 30.3723 74.823 30.924V34.3684H73.5481V28.2064H74.823V28.911C75.0317 28.6575 75.2964 28.4599 75.617 28.3183C75.945 28.1766 76.2917 28.1058 76.657 28.1058ZM82.298 29.2465V32.6574C82.298 32.8885 82.3502 33.0562 82.4546 33.1606C82.5664 33.2575 82.7528 33.306 83.0137 33.306H83.7966V34.3684H82.7901C82.216 34.3684 81.7761 34.2342 81.4704 33.9658C81.1648 33.6974 81.0119 33.2613 81.0119 32.6574V29.2465H80.285V28.2064H81.0119V26.6743H82.298V28.2064H83.7966V29.2465H82.298ZM92.0368 30.376C92.4543 30.4505 92.8084 30.6705 93.0992 31.0358C93.3899 31.4011 93.5353 31.8149 93.5353 32.2771C93.5353 32.6723 93.4309 33.0301 93.2222 33.3507C93.0209 33.6639 92.7264 33.9136 92.3387 34.1C91.951 34.2789 91.5 34.3684 90.9855 34.3684H87.8766V26.5961H90.8402C91.3695 26.5961 91.8243 26.6855 92.2045 26.8645C92.5847 27.0434 92.8718 27.2857 93.0656 27.5914C93.2595 27.8896 93.3564 28.2251 93.3564 28.5979C93.3564 29.0452 93.2371 29.418 92.9985 29.7162C92.7599 30.0144 92.4394 30.2343 92.0368 30.376ZM89.1515 29.8616H90.7283C91.1458 29.8616 91.4701 29.7684 91.7013 29.582C91.9398 29.3881 92.0591 29.1123 92.0591 28.7544C92.0591 28.404 91.9398 28.1319 91.7013 27.938C91.4701 27.7367 91.1458 27.6361 90.7283 27.6361H89.1515V29.8616ZM90.8737 33.3284C91.3061 33.3284 91.6454 33.224 91.8914 33.0152C92.1374 32.8065 92.2604 32.5157 92.2604 32.1429C92.2604 31.7627 92.13 31.4608 91.869 31.2371C91.6081 31.0134 91.2614 30.9016 90.829 30.9016H89.1515V33.3284H90.8737ZM100.501 28.2064V34.3684H99.2263V33.6415C99.025 33.895 98.7603 34.0963 98.4323 34.2454C98.1117 34.387 97.7687 34.4579 97.4034 34.4579C96.9188 34.4579 96.4827 34.3572 96.095 34.1559C95.7147 33.9546 95.4128 33.6564 95.1891 33.2613C94.9729 32.8661 94.8648 32.389 94.8648 31.8298V28.2064H96.1285V31.6397C96.1285 32.1914 96.2665 32.6164 96.5423 32.9146C96.8182 33.2054 97.1947 33.3507 97.6718 33.3507C98.149 33.3507 98.5255 33.2054 98.8013 32.9146C99.0846 32.6164 99.2263 32.1914 99.2263 31.6397V28.2064H100.501ZM104.42 34.4691C103.935 34.4691 103.499 34.3833 103.111 34.2118C102.731 34.0329 102.429 33.7943 102.206 33.4961C101.982 33.1904 101.863 32.8512 101.848 32.4784H103.167C103.19 32.7394 103.313 32.9593 103.536 33.1383C103.768 33.3097 104.055 33.3955 104.398 33.3955C104.755 33.3955 105.031 33.3284 105.225 33.1942C105.426 33.0525 105.527 32.8736 105.527 32.6574C105.527 32.4263 105.415 32.2548 105.192 32.1429C104.975 32.0311 104.629 31.9081 104.152 31.7739C103.689 31.6472 103.313 31.5241 103.022 31.4048C102.731 31.2856 102.478 31.1029 102.262 30.8569C102.053 30.6108 101.948 30.2865 101.948 29.8839C101.948 29.5559 102.045 29.2577 102.239 28.9893C102.433 28.7134 102.709 28.4972 103.067 28.3406C103.432 28.1841 103.85 28.1058 104.319 28.1058C105.02 28.1058 105.583 28.2847 106.008 28.6426C106.44 28.993 106.671 29.4739 106.701 30.0852H105.426C105.404 29.8094 105.292 29.5894 105.091 29.4254C104.89 29.2614 104.618 29.1794 104.275 29.1794C103.939 29.1794 103.682 29.2428 103.503 29.3695C103.324 29.4962 103.235 29.664 103.235 29.8727C103.235 30.0368 103.294 30.1747 103.413 30.2865C103.533 30.3984 103.678 30.4878 103.85 30.5549C104.021 30.6146 104.275 30.6928 104.61 30.7898C105.057 30.9091 105.423 31.0321 105.706 31.1588C105.997 31.2781 106.247 31.457 106.455 31.6956C106.664 31.9342 106.772 32.251 106.78 32.6462C106.78 32.9966 106.683 33.3097 106.489 33.5856C106.295 33.8614 106.019 34.0776 105.661 34.2342C105.311 34.3908 104.897 34.4691 104.42 34.4691ZM108.806 27.3901C108.575 27.3901 108.381 27.3118 108.224 27.1552C108.068 26.9987 107.989 26.8048 107.989 26.5737C107.989 26.3426 108.068 26.1487 108.224 25.9922C108.381 25.8356 108.575 25.7573 108.806 25.7573C109.029 25.7573 109.22 25.8356 109.376 25.9922C109.533 26.1487 109.611 26.3426 109.611 26.5737C109.611 26.8048 109.533 26.9987 109.376 27.1552C109.22 27.3118 109.029 27.3901 108.806 27.3901ZM109.432 28.2064V34.3684H108.157V28.2064H109.432ZM114.215 28.1058C114.699 28.1058 115.132 28.2064 115.512 28.4077C115.9 28.609 116.202 28.9073 116.418 29.3024C116.634 29.6975 116.742 30.1747 116.742 30.7339V34.3684H115.479V30.924C115.479 30.3723 115.341 29.951 115.065 29.6603C114.789 29.362 114.412 29.2129 113.935 29.2129C113.458 29.2129 113.078 29.362 112.795 29.6603C112.519 29.951 112.381 30.3723 112.381 30.924V34.3684H111.106V28.2064H112.381V28.911C112.589 28.6575 112.854 28.4599 113.175 28.3183C113.503 28.1766 113.849 28.1058 114.215 28.1058ZM124.016 31.1365C124.016 31.3676 124.001 31.5763 123.971 31.7627H119.263C119.3 32.2548 119.483 32.6499 119.811 32.9481C120.139 33.2464 120.542 33.3955 121.019 33.3955C121.705 33.3955 122.189 33.1084 122.473 32.5344H123.848C123.662 33.101 123.323 33.5669 122.831 33.9323C122.346 34.2901 121.742 34.4691 121.019 34.4691C120.43 34.4691 119.901 34.3386 119.431 34.0776C118.969 33.8092 118.603 33.4365 118.335 32.9593C118.074 32.4747 117.943 31.9156 117.943 31.2818C117.943 30.6481 118.07 30.0927 118.324 29.6155C118.585 29.1309 118.946 28.7581 119.408 28.4972C119.878 28.2363 120.415 28.1058 121.019 28.1058C121.6 28.1058 122.119 28.2325 122.573 28.486C123.028 28.7395 123.382 29.0974 123.636 29.5596C123.889 30.0144 124.016 30.54 124.016 31.1365ZM122.685 30.7339C122.678 30.2642 122.51 29.8877 122.182 29.6043C121.854 29.321 121.448 29.1794 120.963 29.1794C120.523 29.1794 120.147 29.321 119.833 29.6043C119.52 29.8802 119.334 30.2567 119.274 30.7339H122.685ZM127.507 34.4691C127.023 34.4691 126.586 34.3833 126.199 34.2118C125.819 34.0329 125.517 33.7943 125.293 33.4961C125.069 33.1904 124.95 32.8512 124.935 32.4784H126.255C126.277 32.7394 126.4 32.9593 126.624 33.1383C126.855 33.3097 127.142 33.3955 127.485 33.3955C127.843 33.3955 128.119 33.3284 128.312 33.1942C128.514 33.0525 128.614 32.8736 128.614 32.6574C128.614 32.4263 128.503 32.2548 128.279 32.1429C128.063 32.0311 127.716 31.9081 127.239 31.7739C126.777 31.6472 126.4 31.5241 126.109 31.4048C125.819 31.2856 125.565 31.1029 125.349 30.8569C125.14 30.6108 125.036 30.2865 125.036 29.8839C125.036 29.5559 125.133 29.2577 125.326 28.9893C125.52 28.7134 125.796 28.4972 126.154 28.3406C126.519 28.1841 126.937 28.1058 127.407 28.1058C128.107 28.1058 128.67 28.2847 129.095 28.6426C129.528 28.993 129.759 29.4739 129.789 30.0852H128.514C128.491 29.8094 128.38 29.5894 128.178 29.4254C127.977 29.2614 127.705 29.1794 127.362 29.1794C127.026 29.1794 126.769 29.2428 126.59 29.3695C126.411 29.4962 126.322 29.664 126.322 29.8727C126.322 30.0368 126.381 30.1747 126.501 30.2865C126.62 30.3984 126.765 30.4878 126.937 30.5549C127.108 30.6146 127.362 30.6928 127.697 30.7898C128.145 30.9091 128.51 31.0321 128.793 31.1588C129.084 31.2781 129.334 31.457 129.543 31.6956C129.751 31.9342 129.859 32.251 129.867 32.6462C129.867 32.9966 129.77 33.3097 129.576 33.5856C129.382 33.8614 129.106 34.0776 128.749 34.2342C128.398 34.3908 127.984 34.4691 127.507 34.4691ZM133.481 34.4691C132.996 34.4691 132.56 34.3833 132.173 34.2118C131.792 34.0329 131.49 33.7943 131.267 33.4961C131.043 33.1904 130.924 32.8512 130.909 32.4784H132.229C132.251 32.7394 132.374 32.9593 132.598 33.1383C132.829 33.3097 133.116 33.3955 133.459 33.3955C133.817 33.3955 134.092 33.3284 134.286 33.1942C134.488 33.0525 134.588 32.8736 134.588 32.6574C134.588 32.4263 134.476 32.2548 134.253 32.1429C134.037 32.0311 133.69 31.9081 133.213 31.7739C132.75 31.6472 132.374 31.5241 132.083 31.4048C131.792 31.2856 131.539 31.1029 131.323 30.8569C131.114 30.6108 131.01 30.2865 131.01 29.8839C131.01 29.5559 131.106 29.2577 131.3 28.9893C131.494 28.7134 131.77 28.4972 132.128 28.3406C132.493 28.1841 132.911 28.1058 133.38 28.1058C134.081 28.1058 134.644 28.2847 135.069 28.6426C135.502 28.993 135.733 29.4739 135.762 30.0852H134.488C134.465 29.8094 134.353 29.5894 134.152 29.4254C133.951 29.2614 133.679 29.1794 133.336 29.1794C133 29.1794 132.743 29.2428 132.564 29.3695C132.385 29.4962 132.296 29.664 132.296 29.8727C132.296 30.0368 132.355 30.1747 132.475 30.2865C132.594 30.3984 132.739 30.4878 132.911 30.5549C133.082 30.6146 133.336 30.6928 133.671 30.7898C134.119 30.9091 134.484 31.0321 134.767 31.1588C135.058 31.2781 135.308 31.457 135.516 31.6956C135.725 31.9342 135.833 32.251 135.841 32.6462C135.841 32.9966 135.744 33.3097 135.55 33.5856C135.356 33.8614 135.08 34.0776 134.722 34.2342C134.372 34.3908 133.958 34.4691 133.481 34.4691ZM142.684 34.4467C142.162 34.4467 141.693 34.3572 141.275 34.1783C140.858 33.9919 140.53 33.731 140.291 33.3955C140.052 33.06 139.933 32.6686 139.933 32.2212H141.298C141.327 32.5567 141.458 32.8326 141.689 33.0488C141.928 33.265 142.259 33.3731 142.684 33.3731C143.124 33.3731 143.467 33.2687 143.713 33.06C143.959 32.8438 144.082 32.5679 144.082 32.2324C144.082 31.9715 144.004 31.759 143.847 31.595C143.698 31.4309 143.508 31.3042 143.277 31.2147C143.053 31.1253 142.74 31.0283 142.338 30.924C141.831 30.7898 141.417 30.6556 141.096 30.5214C140.783 30.3797 140.515 30.1635 140.291 29.8727C140.067 29.582 139.956 29.1943 139.956 28.7097C139.956 28.2624 140.067 27.8709 140.291 27.5354C140.515 27.2 140.828 26.9427 141.23 26.7638C141.633 26.5849 142.099 26.4954 142.628 26.4954C143.381 26.4954 143.996 26.6855 144.474 27.0658C144.958 27.4385 145.227 27.953 145.279 28.609H143.87C143.847 28.3257 143.713 28.0834 143.467 27.8821C143.221 27.6808 142.897 27.5802 142.494 27.5802C142.129 27.5802 141.831 27.6734 141.599 27.8598C141.368 28.0461 141.253 28.3145 141.253 28.665C141.253 28.9035 141.324 29.1011 141.465 29.2577C141.614 29.4068 141.801 29.5261 142.024 29.6155C142.248 29.705 142.554 29.8019 142.941 29.9063C143.456 30.0479 143.873 30.1896 144.194 30.3313C144.522 30.4729 144.798 30.6928 145.022 30.9911C145.253 31.2818 145.368 31.6732 145.368 32.1653C145.368 32.5605 145.26 32.9332 145.044 33.2836C144.835 33.634 144.526 33.9174 144.116 34.1336C143.713 34.3423 143.236 34.4467 142.684 34.4467ZM149.545 34.4691C148.964 34.4691 148.438 34.3386 147.969 34.0776C147.499 33.8092 147.13 33.4365 146.861 32.9593C146.593 32.4747 146.459 31.9156 146.459 31.2818C146.459 30.6556 146.597 30.1001 146.873 29.6155C147.148 29.1309 147.525 28.7581 148.002 28.4972C148.479 28.2363 149.012 28.1058 149.601 28.1058C150.19 28.1058 150.723 28.2363 151.2 28.4972C151.678 28.7581 152.054 29.1309 152.33 29.6155C152.606 30.1001 152.744 30.6556 152.744 31.2818C152.744 31.9081 152.602 32.4635 152.319 32.9481C152.035 33.4327 151.648 33.8092 151.156 34.0776C150.671 34.3386 150.134 34.4691 149.545 34.4691ZM149.545 33.3619C149.873 33.3619 150.179 33.2836 150.462 33.1271C150.753 32.9705 150.988 32.7357 151.167 32.4225C151.346 32.1094 151.435 31.7292 151.435 31.2818C151.435 30.8345 151.35 30.458 151.178 30.1523C151.007 29.8392 150.779 29.6043 150.496 29.4478C150.213 29.2912 149.907 29.2129 149.579 29.2129C149.251 29.2129 148.945 29.2912 148.662 29.4478C148.386 29.6043 148.166 29.8392 148.002 30.1523C147.838 30.458 147.756 30.8345 147.756 31.2818C147.756 31.9454 147.924 32.4598 148.259 32.8251C148.602 33.183 149.031 33.3619 149.545 33.3619ZM155.279 26.0928V34.3684H154.004V26.0928H155.279ZM162.533 28.2064V34.3684H161.258V33.6415C161.057 33.895 160.792 34.0963 160.464 34.2454C160.144 34.387 159.801 34.4579 159.435 34.4579C158.951 34.4579 158.515 34.3572 158.127 34.1559C157.747 33.9546 157.445 33.6564 157.221 33.2613C157.005 32.8661 156.897 32.389 156.897 31.8298V28.2064H158.161V31.6397C158.161 32.1914 158.298 32.6164 158.574 32.9146C158.85 33.2054 159.227 33.3507 159.704 33.3507C160.181 33.3507 160.558 33.2054 160.833 32.9146C161.117 32.6164 161.258 32.1914 161.258 31.6397V28.2064H162.533ZM165.703 29.2465V32.6574C165.703 32.8885 165.755 33.0562 165.859 33.1606C165.971 33.2575 166.157 33.306 166.418 33.306H167.201V34.3684H166.195C165.621 34.3684 165.181 34.2342 164.875 33.9658C164.569 33.6974 164.417 33.2613 164.417 32.6574V29.2465H163.69V28.2064H164.417V26.6743H165.703V28.2064H167.201V29.2465H165.703ZM169.025 27.3901C168.794 27.3901 168.6 27.3118 168.443 27.1552C168.287 26.9987 168.209 26.8048 168.209 26.5737C168.209 26.3426 168.287 26.1487 168.443 25.9922C168.6 25.8356 168.794 25.7573 169.025 25.7573C169.249 25.7573 169.439 25.8356 169.595 25.9922C169.752 26.1487 169.83 26.3426 169.83 26.5737C169.83 26.8048 169.752 26.9987 169.595 27.1552C169.439 27.3118 169.249 27.3901 169.025 27.3901ZM169.651 28.2064V34.3684H168.376V28.2064H169.651ZM173.998 34.4691C173.416 34.4691 172.891 34.3386 172.421 34.0776C171.951 33.8092 171.582 33.4365 171.314 32.9593C171.045 32.4747 170.911 31.9156 170.911 31.2818C170.911 30.6556 171.049 30.1001 171.325 29.6155C171.601 29.1309 171.977 28.7581 172.454 28.4972C172.932 28.2363 173.465 28.1058 174.054 28.1058C174.643 28.1058 175.176 28.2363 175.653 28.4972C176.13 28.7581 176.507 29.1309 176.782 29.6155C177.058 30.1001 177.196 30.6556 177.196 31.2818C177.196 31.9081 177.055 32.4635 176.771 32.9481C176.488 33.4327 176.1 33.8092 175.608 34.0776C175.124 34.3386 174.587 34.4691 173.998 34.4691ZM173.998 33.3619C174.326 33.3619 174.631 33.2836 174.915 33.1271C175.206 32.9705 175.44 32.7357 175.619 32.4225C175.798 32.1094 175.888 31.7292 175.888 31.2818C175.888 30.8345 175.802 30.458 175.631 30.1523C175.459 29.8392 175.232 29.6043 174.948 29.4478C174.665 29.2912 174.359 29.2129 174.031 29.2129C173.703 29.2129 173.398 29.2912 173.114 29.4478C172.838 29.6043 172.619 29.8392 172.454 30.1523C172.29 30.458 172.208 30.8345 172.208 31.2818C172.208 31.9454 172.376 32.4598 172.712 32.8251C173.055 33.183 173.483 33.3619 173.998 33.3619ZM181.565 28.1058C182.05 28.1058 182.482 28.2064 182.863 28.4077C183.25 28.609 183.552 28.9073 183.769 29.3024C183.985 29.6975 184.093 30.1747 184.093 30.7339V34.3684H182.829V30.924C182.829 30.3723 182.691 29.951 182.415 29.6603C182.139 29.362 181.763 29.2129 181.286 29.2129C180.809 29.2129 180.428 29.362 180.145 29.6603C179.869 29.951 179.731 30.3723 179.731 30.924V34.3684H178.456V28.2064H179.731V28.911C179.94 28.6575 180.205 28.4599 180.525 28.3183C180.853 28.1766 181.2 28.1058 181.565 28.1058ZM187.956 34.4691C187.471 34.4691 187.035 34.3833 186.647 34.2118C186.267 34.0329 185.965 33.7943 185.741 33.4961C185.518 33.1904 185.398 32.8512 185.384 32.4784H186.703C186.726 32.7394 186.849 32.9593 187.072 33.1383C187.303 33.3097 187.59 33.3955 187.933 33.3955C188.291 33.3955 188.567 33.3284 188.761 33.1942C188.962 33.0525 189.063 32.8736 189.063 32.6574C189.063 32.4263 188.951 32.2548 188.727 32.1429C188.511 32.0311 188.164 31.9081 187.687 31.7739C187.225 31.6472 186.849 31.5241 186.558 31.4048C186.267 31.2856 186.014 31.1029 185.797 30.8569C185.589 30.6108 185.484 30.2865 185.484 29.8839C185.484 29.5559 185.581 29.2577 185.775 28.9893C185.969 28.7134 186.245 28.4972 186.603 28.3406C186.968 28.1841 187.385 28.1058 187.855 28.1058C188.556 28.1058 189.119 28.2847 189.544 28.6426C189.976 28.993 190.207 29.4739 190.237 30.0852H188.962C188.94 29.8094 188.828 29.5894 188.627 29.4254C188.425 29.2614 188.153 29.1794 187.81 29.1794C187.475 29.1794 187.218 29.2428 187.039 29.3695C186.86 29.4962 186.77 29.664 186.77 29.8727C186.77 30.0368 186.83 30.1747 186.949 30.2865C187.068 30.3984 187.214 30.4878 187.385 30.5549C187.557 30.6146 187.81 30.6928 188.146 30.7898C188.593 30.9091 188.958 31.0321 189.242 31.1588C189.533 31.2781 189.782 31.457 189.991 31.6956C190.2 31.9342 190.308 32.251 190.315 32.6462C190.315 32.9966 190.218 33.3097 190.025 33.5856C189.831 33.8614 189.555 34.0776 189.197 34.2342C188.847 34.3908 188.433 34.4691 187.956 34.4691Z" fill="white"></path>
  <path d="M23.9404 33.9148L13.4665 33.9148L13.4665 23.4408L23.9404 23.4408L23.9404 33.9148Z" fill="white"></path>
  <path d="M11.9707 22.543L0.000468254 22.543L0.000469301 10.5727L11.9707 10.5727L11.9707 22.543Z" fill="white"></path>
  <path d="M15.2622 14.4631L22.4443 14.4631L22.4443 7.28099L15.2622 7.28099L15.2622 14.4631Z" fill="white"></path>
</svg>
