<?xml version="1.0" encoding="UTF-8"?>
<svg xmlns="http://www.w3.org/2000/svg" width="284" height="56" viewBox="0 0 284 56" fill="none">
  <path d="M52.6796 31L48.3442 23.3428H46.4862V31H42.545V11.3501H49.9207C51.4409 11.3501 52.7359 11.6223 53.8057 12.1665C54.8754 12.692 55.6731 13.4146 56.1986 14.3342C56.7428 15.2351 57.015 16.2485 57.015 17.3746C57.015 18.6696 56.6396 19.8426 55.8889 20.8936C55.1382 21.9258 54.0215 22.639 52.5388 23.0331L57.2402 31H52.6796ZM46.4862 20.3868H49.78C50.8497 20.3868 51.6474 20.1335 52.1729 19.6267C52.6984 19.1012 52.9611 18.3787 52.9611 17.4591C52.9611 16.5582 52.6984 15.8638 52.1729 15.3758C51.6474 14.8691 50.8497 14.6157 49.78 14.6157H46.4862V20.3868ZM64.5209 14.5313V19.4578H71.1365V22.5827H64.5209V27.7907H71.9811V31H60.5797V11.322H71.9811V14.5313H64.5209ZM82.3473 31.1971C80.9772 31.1971 79.7385 30.9625 78.6312 30.4933C77.5427 30.0241 76.6794 29.3484 76.0413 28.4664C75.4032 27.5843 75.0747 26.5427 75.056 25.3415H79.2787C79.335 26.1485 79.6165 26.7866 80.1233 27.2558C80.6488 27.725 81.362 27.9596 82.2628 27.9596C83.1824 27.9596 83.905 27.7438 84.4305 27.3121C84.956 26.8617 85.2187 26.2799 85.2187 25.5667C85.2187 24.9849 85.0404 24.5064 84.6838 24.131C84.3273 23.7556 83.8768 23.4647 83.3326 23.2583C82.8071 23.0331 82.0751 22.7891 81.1367 22.5264C79.8605 22.151 78.8189 21.785 78.0119 21.4284C77.2237 21.0531 76.5386 20.4994 75.9568 19.7675C75.3938 19.0168 75.1123 18.0221 75.1123 16.7834C75.1123 15.6198 75.4032 14.6064 75.985 13.743C76.5668 12.8797 77.3832 12.2228 78.4342 11.7724C79.4852 11.3032 80.6863 11.0686 82.0376 11.0686C84.0645 11.0686 85.7067 11.566 86.9641 12.5607C88.2403 13.5366 88.9441 14.9066 89.0755 16.6708H84.7401C84.7026 15.9952 84.4117 15.4415 83.8674 15.0099C83.342 14.5594 82.6382 14.3342 81.7561 14.3342C80.9866 14.3342 80.3673 14.5313 79.8981 14.9254C79.4476 15.3195 79.2224 15.8919 79.2224 16.6427C79.2224 17.1682 79.3913 17.6092 79.7292 17.9658C80.0857 18.3036 80.5174 18.5851 81.0241 18.8103C81.5496 19.0168 82.2816 19.2608 83.22 19.5423C84.4962 19.9176 85.5378 20.293 86.3448 20.6683C87.1518 21.0437 87.8462 21.6067 88.428 22.3574C89.0098 23.1082 89.3007 24.0935 89.3007 25.3134C89.3007 26.3644 89.0286 27.3403 88.4843 28.2411C87.9401 29.142 87.1424 29.8646 86.0914 30.4088C85.0404 30.9343 83.7924 31.1971 82.3473 31.1971ZM101.839 31.1971C99.9995 31.1971 98.3104 30.7654 96.7715 29.9021C95.2325 29.0388 94.0126 27.847 93.1117 26.3268C92.2109 24.7879 91.7605 23.0519 91.7605 21.1188C91.7605 19.2045 92.2109 17.4872 93.1117 15.967C94.0126 14.4281 95.2325 13.2269 96.7715 12.3636C98.3104 11.5003 99.9995 11.0686 101.839 11.0686C103.697 11.0686 105.386 11.5003 106.906 12.3636C108.445 13.2269 109.656 14.4281 110.538 15.967C111.438 17.4872 111.889 19.2045 111.889 21.1188C111.889 23.0519 111.438 24.7879 110.538 26.3268C109.656 27.847 108.445 29.0388 106.906 29.9021C105.367 30.7654 103.678 31.1971 101.839 31.1971ZM101.839 27.6781C103.021 27.6781 104.063 27.4154 104.964 26.8899C105.864 26.3456 106.568 25.5761 107.075 24.5814C107.582 23.5867 107.835 22.4325 107.835 21.1188C107.835 19.805 107.582 18.6602 107.075 17.6843C106.568 16.6896 105.864 15.9295 104.964 15.404C104.063 14.8785 103.021 14.6157 101.839 14.6157C100.656 14.6157 99.6054 14.8785 98.6858 15.404C97.7849 15.9295 97.0811 16.6896 96.5744 17.6843C96.0677 18.6602 95.8143 19.805 95.8143 21.1188C95.8143 22.4325 96.0677 23.5867 96.5744 24.5814C97.0811 25.5761 97.7849 26.3456 98.6858 26.8899C99.6054 27.4154 100.656 27.6781 101.839 27.6781ZM131.628 31H127.686L118.762 17.5154V31H114.821V11.322H118.762L127.686 24.8348V11.322H131.628V31ZM147.571 27.2558H139.745L138.45 31H134.312L141.378 11.322H145.967L153.033 31H148.866L147.571 27.2558ZM146.502 24.1028L143.658 15.8826L140.815 24.1028H146.502ZM172.48 31H168.539L159.615 17.5154V31H155.674V11.322H159.615L168.539 24.8348V11.322H172.48V31ZM189.747 11.3501V14.5313H184.511V31H180.57V14.5313H175.334V11.3501H189.747ZM203.272 27.8752H209.747V31H199.331V11.3501H203.272V27.8752ZM221.373 31.1971C219.534 31.1971 217.845 30.7654 216.306 29.9021C214.767 29.0388 213.547 27.847 212.646 26.3268C211.745 24.7879 211.295 23.0519 211.295 21.1188C211.295 19.2045 211.745 17.4872 212.646 15.967C213.547 14.4281 214.767 13.2269 216.306 12.3636C217.845 11.5003 219.534 11.0686 221.373 11.0686C223.231 11.0686 224.92 11.5003 226.441 12.3636C227.98 13.2269 229.19 14.4281 230.072 15.967C230.973 17.4872 231.423 19.2045 231.423 21.1188C231.423 23.0519 230.973 24.7879 230.072 26.3268C229.19 27.847 227.98 29.0388 226.441 29.9021C224.902 30.7654 223.213 31.1971 221.373 31.1971ZM221.373 27.6781C222.556 27.6781 223.597 27.4154 224.498 26.8899C225.399 26.3456 226.103 25.5761 226.609 24.5814C227.116 23.5867 227.37 22.4325 227.37 21.1188C227.37 19.805 227.116 18.6602 226.609 17.6843C226.103 16.6896 225.399 15.9295 224.498 15.404C223.597 14.8785 222.556 14.6157 221.373 14.6157C220.191 14.6157 219.14 14.8785 218.22 15.404C217.319 15.9295 216.616 16.6896 216.109 17.6843C215.602 18.6602 215.349 19.805 215.349 21.1188C215.349 22.4325 215.602 23.5867 216.109 24.5814C216.616 25.5761 217.319 26.3456 218.22 26.8899C219.14 27.4154 220.191 27.6781 221.373 27.6781ZM248.037 17.262C247.587 16.4362 246.968 15.8075 246.179 15.3758C245.391 14.9442 244.471 14.7283 243.42 14.7283C242.257 14.7283 241.225 14.9911 240.324 15.5166C239.423 16.0421 238.719 16.7928 238.212 17.7687C237.706 18.7446 237.452 19.8707 237.452 21.1469C237.452 22.4607 237.706 23.6055 238.212 24.5814C238.738 25.5573 239.46 26.3081 240.38 26.8336C241.3 27.3591 242.369 27.6218 243.589 27.6218C245.091 27.6218 246.32 27.2277 247.277 26.4394C248.234 25.6324 248.863 24.5157 249.163 23.0894H242.407V20.0772H253.048V23.5117C252.786 24.8817 252.223 26.1485 251.359 27.3121C250.496 28.4757 249.379 29.4141 248.009 30.1273C246.658 30.8217 245.138 31.1689 243.449 31.1689C241.553 31.1689 239.836 30.7466 238.297 29.9021C236.777 29.0388 235.576 27.847 234.693 26.3268C233.83 24.8066 233.398 23.08 233.398 21.1469C233.398 19.2138 233.83 17.4872 234.693 15.967C235.576 14.4281 236.777 13.2363 238.297 12.3918C239.836 11.5284 241.544 11.0968 243.42 11.0968C245.635 11.0968 247.559 11.641 249.192 12.7296C250.824 13.7993 251.95 15.3101 252.57 17.262H248.037ZM259.905 11.3501V31H255.964V11.3501H259.905ZM262.842 21.1469C262.842 19.2138 263.274 17.4872 264.137 15.967C265.019 14.4281 266.211 13.2363 267.712 12.3918C269.233 11.5284 270.931 11.0968 272.808 11.0968C275.004 11.0968 276.927 11.6598 278.579 12.7859C280.231 13.9119 281.385 15.4697 282.042 17.4591H277.509C277.059 16.5207 276.421 15.8169 275.595 15.3477C274.788 14.8785 273.85 14.6439 272.78 14.6439C271.635 14.6439 270.612 14.916 269.711 15.4603C268.829 15.9858 268.135 16.7365 267.628 17.7124C267.14 18.6883 266.896 19.8332 266.896 21.1469C266.896 22.4419 267.14 23.5867 267.628 24.5814C268.135 25.5573 268.829 26.3174 269.711 26.8617C270.612 27.3872 271.635 27.65 272.78 27.65C273.85 27.65 274.788 27.4154 275.595 26.9462C276.421 26.4582 277.059 25.745 277.509 24.8066H282.042C281.385 26.8148 280.231 28.3819 278.579 29.508C276.946 30.6153 275.022 31.1689 272.808 31.1689C270.931 31.1689 269.233 30.7466 267.712 29.9021C266.211 29.0388 265.019 27.847 264.137 26.3268C263.274 24.8066 262.842 23.08 262.842 21.1469Z" fill="black"></path>
  <path d="M44.1936 39.1092V50.7019H42.292V39.1092H44.1936ZM51.3272 41.361C52.05 41.361 52.6949 41.5112 53.2621 41.8114C53.8403 42.1116 54.2907 42.5564 54.6132 43.1458C54.9356 43.7352 55.0969 44.4469 55.0969 45.2809V50.7019H53.212V45.5644C53.212 44.7415 53.0063 44.1133 52.5949 43.6796C52.1834 43.2348 51.6219 43.0124 50.9102 43.0124C50.1985 43.0124 49.6314 43.2348 49.2088 43.6796C48.7974 44.1133 48.5916 44.7415 48.5916 45.5644V50.7019H46.6901V41.5112H48.5916V42.562C48.903 42.1839 49.2978 41.8892 49.7759 41.678C50.2652 41.4667 50.7823 41.361 51.3272 41.361ZM59.7409 43.0624V48.1498C59.7409 48.4946 59.8187 48.7448 59.9744 48.9005C60.1412 49.045 60.4192 49.1173 60.8084 49.1173H61.976V50.7019H60.4748C59.6185 50.7019 58.9625 50.5017 58.5065 50.1014C58.0506 49.7011 57.8227 49.0506 57.8227 48.1498V43.0624H56.7384V41.5112H57.8227V39.226H59.7409V41.5112H61.976V43.0624H59.7409ZM72.1521 45.8813C72.1521 46.2261 72.1298 46.5374 72.0853 46.8154H65.063C65.1186 47.5494 65.391 48.1387 65.8803 48.5835C66.3696 49.0283 66.9701 49.2507 67.6818 49.2507C68.7048 49.2507 69.4276 48.8226 69.8502 47.9664H71.9019C71.6238 48.8115 71.1179 49.5065 70.384 50.0514C69.6612 50.5851 68.7604 50.852 67.6818 50.852C66.8033 50.852 66.0138 50.6574 65.3132 50.2682C64.6238 49.8679 64.0789 49.3119 63.6786 48.6002C63.2893 47.8774 63.0947 47.0434 63.0947 46.0982C63.0947 45.153 63.2838 44.3245 63.6619 43.6129C64.0511 42.89 64.5904 42.334 65.2798 41.9448C65.9804 41.5556 66.7811 41.361 67.6818 41.361C68.5491 41.361 69.322 41.5501 70.0003 41.9282C70.6786 42.3062 71.2068 42.84 71.5849 43.5295C71.963 44.2078 72.1521 44.9917 72.1521 45.8813ZM70.1671 45.2809C70.156 44.5803 69.9058 44.0187 69.4165 43.5962C68.9272 43.1736 68.3212 42.9623 67.5984 42.9623C66.9423 42.9623 66.3807 43.1736 65.9137 43.5962C65.4466 44.0076 65.1686 44.5692 65.0797 45.2809H70.1671ZM75.9249 38.3586V50.7019H74.0234V38.3586H75.9249ZM80.323 38.3586V50.7019H78.4214V38.3586H80.323ZM83.787 40.2935C83.4422 40.2935 83.1531 40.1767 82.9196 39.9432C82.6861 39.7097 82.5693 39.4206 82.5693 39.0759C82.5693 38.7311 82.6861 38.442 82.9196 38.2085C83.1531 37.975 83.4422 37.8582 83.787 37.8582C84.1206 37.8582 84.4041 37.975 84.6376 38.2085C84.8712 38.442 84.9879 38.7311 84.9879 39.0759C84.9879 39.4206 84.8712 39.7097 84.6376 39.9432C84.4041 40.1767 84.1206 40.2935 83.787 40.2935ZM84.721 41.5112V50.7019H82.8195V41.5112H84.721ZM90.9206 41.361C91.6323 41.361 92.2606 41.5056 92.8054 41.7947C93.3614 42.0727 93.7951 42.423 94.1065 42.8456V41.5112H96.0247V50.852C96.0247 51.6972 95.8468 52.4478 95.4909 53.1038C95.1351 53.771 94.618 54.2937 93.9397 54.6718C93.2725 55.0499 92.4718 55.2389 91.5377 55.2389C90.2923 55.2389 89.2581 54.9442 88.4352 54.3549C87.6124 53.7766 87.1453 52.9871 87.0341 51.9863H88.919C89.0635 52.4644 89.3693 52.8481 89.8364 53.1372C90.3145 53.4374 90.8817 53.5876 91.5377 53.5876C92.305 53.5876 92.9222 53.354 93.3892 52.887C93.8674 52.42 94.1065 51.7416 94.1065 50.852V49.3175C93.784 49.7511 93.3448 50.1181 92.7888 50.4183C92.2439 50.7075 91.6211 50.852 90.9206 50.852C90.1199 50.852 89.386 50.6519 88.7188 50.2515C88.0627 49.8401 87.5401 49.273 87.1509 48.5502C86.7728 47.8162 86.5838 46.9878 86.5838 46.0648C86.5838 45.1419 86.7728 44.3245 87.1509 43.6129C87.5401 42.9012 88.0627 42.3507 88.7188 41.9615C89.386 41.5612 90.1199 41.361 90.9206 41.361ZM94.1065 46.0982C94.1065 45.4643 93.973 44.9139 93.7062 44.4469C93.4504 43.9798 93.1112 43.624 92.6887 43.3793C92.2661 43.1347 91.8102 43.0124 91.3209 43.0124C90.8316 43.0124 90.3757 43.1347 89.9531 43.3793C89.5306 43.6129 89.1859 43.9631 88.919 44.4302C88.6632 44.8861 88.5353 45.431 88.5353 46.0648C88.5353 46.6987 88.6632 47.2547 88.919 47.7328C89.1859 48.211 89.5306 48.578 89.9531 48.8337C90.3868 49.0784 90.8427 49.2007 91.3209 49.2007C91.8102 49.2007 92.2661 49.0784 92.6887 48.8337C93.1112 48.5891 93.4504 48.2332 93.7062 47.7662C93.973 47.288 94.1065 46.732 94.1065 46.0982ZM106.946 45.8813C106.946 46.2261 106.924 46.5374 106.879 46.8154H99.8567C99.9123 47.5494 100.185 48.1387 100.674 48.5835C101.163 49.0283 101.764 49.2507 102.475 49.2507C103.499 49.2507 104.221 48.8226 104.644 47.9664H106.696C106.418 48.8115 105.912 49.5065 105.178 50.0514C104.455 50.5851 103.554 50.852 102.475 50.852C101.597 50.852 100.807 50.6574 100.107 50.2682C99.4175 49.8679 98.8726 49.3119 98.4722 48.6002C98.083 47.8774 97.8884 47.0434 97.8884 46.0982C97.8884 45.153 98.0775 44.3245 98.4556 43.6129C98.8448 42.89 99.3841 42.334 100.074 41.9448C100.774 41.5556 101.575 41.361 102.475 41.361C103.343 41.361 104.116 41.5501 104.794 41.9282C105.472 42.3062 106.001 42.84 106.379 43.5295C106.757 44.2078 106.946 44.9917 106.946 45.8813ZM104.961 45.2809C104.95 44.5803 104.699 44.0187 104.21 43.5962C103.721 43.1736 103.115 42.9623 102.392 42.9623C101.736 42.9623 101.174 43.1736 100.707 43.5962C100.24 44.0076 99.9623 44.5692 99.8734 45.2809H104.961ZM113.454 41.361C114.177 41.361 114.822 41.5112 115.389 41.8114C115.967 42.1116 116.418 42.5564 116.74 43.1458C117.063 43.7352 117.224 44.4469 117.224 45.2809V50.7019H115.339V45.5644C115.339 44.7415 115.133 44.1133 114.722 43.6796C114.31 43.2348 113.749 43.0124 113.037 43.0124C112.325 43.0124 111.758 43.2348 111.336 43.6796C110.924 44.1133 110.719 44.7415 110.719 45.5644V50.7019H108.817V41.5112H110.719V42.562C111.03 42.1839 111.425 41.8892 111.903 41.678C112.392 41.4667 112.909 41.361 113.454 41.361ZM121.868 43.0624V48.1498C121.868 48.4946 121.946 48.7448 122.101 48.9005C122.268 49.045 122.546 49.1173 122.935 49.1173H124.103V50.7019H122.602C121.745 50.7019 121.089 50.5017 120.633 50.1014C120.178 49.7011 119.95 49.0506 119.95 48.1498V43.0624H118.865V41.5112H119.95V39.226H121.868V41.5112H124.103V43.0624H121.868ZM136.393 44.7471C137.016 44.8583 137.544 45.1863 137.978 45.7312C138.412 46.2761 138.629 46.8933 138.629 47.5827C138.629 48.1721 138.473 48.7058 138.162 49.184C137.861 49.6511 137.422 50.0236 136.844 50.3016C136.266 50.5685 135.593 50.7019 134.826 50.7019H130.188V39.1092H134.609C135.398 39.1092 136.077 39.2427 136.644 39.5095C137.211 39.7764 137.639 40.1378 137.928 40.5937C138.217 41.0386 138.362 41.539 138.362 42.095C138.362 42.7622 138.184 43.3182 137.828 43.763C137.472 44.2078 136.994 44.5358 136.393 44.7471ZM132.09 43.9798H134.442C135.065 43.9798 135.548 43.8408 135.893 43.5628C136.249 43.2737 136.427 42.8622 136.427 42.3285C136.427 41.8058 136.249 41.4 135.893 41.1108C135.548 40.8106 135.065 40.6605 134.442 40.6605H132.09V43.9798ZM134.659 49.1507C135.304 49.1507 135.81 48.995 136.177 48.6836C136.544 48.3722 136.727 47.9386 136.727 47.3826C136.727 46.8154 136.532 46.3651 136.143 46.0315C135.754 45.6979 135.237 45.5311 134.592 45.5311H132.09V49.1507H134.659ZM149.018 41.5112V50.7019H147.117V49.6177C146.817 49.9958 146.422 50.296 145.933 50.5184C145.454 50.7297 144.943 50.8353 144.398 50.8353C143.675 50.8353 143.025 50.6852 142.446 50.385C141.879 50.0847 141.429 49.6399 141.095 49.0506C140.773 48.4612 140.612 47.7495 140.612 46.9155V41.5112H142.496V46.632C142.496 47.4548 142.702 48.0887 143.114 48.5335C143.525 48.9672 144.087 49.184 144.798 49.184C145.51 49.184 146.072 48.9672 146.483 48.5335C146.906 48.0887 147.117 47.4548 147.117 46.632V41.5112H149.018ZM154.863 50.852C154.141 50.852 153.49 50.7241 152.912 50.4684C152.345 50.2015 151.894 49.8457 151.561 49.4009C151.227 48.9449 151.049 48.439 151.027 47.883H152.995C153.029 48.2722 153.212 48.6002 153.546 48.8671C153.89 49.1229 154.318 49.2507 154.83 49.2507C155.364 49.2507 155.775 49.1507 156.064 48.9505C156.365 48.7392 156.515 48.4723 156.515 48.1498C156.515 47.8051 156.348 47.5494 156.014 47.3826C155.692 47.2158 155.175 47.0323 154.463 46.8321C153.774 46.6431 153.212 46.4596 152.778 46.2817C152.345 46.1037 151.967 45.8313 151.644 45.4643C151.333 45.0974 151.177 44.6137 151.177 44.0132C151.177 43.5239 151.322 43.0791 151.611 42.6788C151.9 42.2673 152.311 41.9448 152.845 41.7113C153.39 41.4778 154.013 41.361 154.713 41.361C155.758 41.361 156.598 41.6279 157.232 42.1617C157.877 42.6843 158.222 43.4016 158.266 44.3134H156.365C156.331 43.902 156.164 43.5739 155.864 43.3293C155.564 43.0846 155.158 42.9623 154.646 42.9623C154.146 42.9623 153.762 43.0568 153.496 43.2459C153.229 43.4349 153.095 43.6851 153.095 43.9965C153.095 44.2411 153.184 44.4469 153.362 44.6137C153.54 44.7805 153.757 44.9139 154.013 45.014C154.268 45.1029 154.646 45.2197 155.147 45.3643C155.814 45.5422 156.359 45.7257 156.782 45.9147C157.215 46.0926 157.588 46.3595 157.899 46.7154C158.21 47.0712 158.372 47.5438 158.383 48.1332C158.383 48.6558 158.238 49.1229 157.949 49.5343C157.66 49.9457 157.249 50.2682 156.715 50.5017C156.192 50.7353 155.575 50.852 154.863 50.852ZM161.405 40.2935C161.06 40.2935 160.771 40.1767 160.538 39.9432C160.304 39.7097 160.187 39.4206 160.187 39.0759C160.187 38.7311 160.304 38.442 160.538 38.2085C160.771 37.975 161.06 37.8582 161.405 37.8582C161.739 37.8582 162.022 37.975 162.256 38.2085C162.489 38.442 162.606 38.7311 162.606 39.0759C162.606 39.4206 162.489 39.7097 162.256 39.9432C162.022 40.1767 161.739 40.2935 161.405 40.2935ZM162.339 41.5112V50.7019H160.437V41.5112H162.339ZM169.473 41.361C170.195 41.361 170.84 41.5112 171.408 41.8114C171.986 42.1116 172.436 42.5564 172.759 43.1458C173.081 43.7352 173.242 44.4469 173.242 45.2809V50.7019H171.357V45.5644C171.357 44.7415 171.152 44.1133 170.74 43.6796C170.329 43.2348 169.767 43.0124 169.056 43.0124C168.344 43.0124 167.777 43.2348 167.354 43.6796C166.943 44.1133 166.737 44.7415 166.737 45.5644V50.7019H164.836V41.5112H166.737V42.562C167.048 42.1839 167.443 41.8892 167.921 41.678C168.411 41.4667 168.928 41.361 169.473 41.361ZM184.091 45.8813C184.091 46.2261 184.069 46.5374 184.025 46.8154H177.002C177.058 47.5494 177.33 48.1387 177.82 48.5835C178.309 49.0283 178.909 49.2507 179.621 49.2507C180.644 49.2507 181.367 48.8226 181.789 47.9664H183.841C183.563 48.8115 183.057 49.5065 182.323 50.0514C181.6 50.5851 180.7 50.852 179.621 50.852C178.743 50.852 177.953 50.6574 177.252 50.2682C176.563 49.8679 176.018 49.3119 175.618 48.6002C175.229 47.8774 175.034 47.0434 175.034 46.0982C175.034 45.153 175.223 44.3245 175.601 43.6129C175.99 42.89 176.53 42.334 177.219 41.9448C177.92 41.5556 178.72 41.361 179.621 41.361C180.488 41.361 181.261 41.5501 181.94 41.9282C182.618 42.3062 183.146 42.84 183.524 43.5295C183.902 44.2078 184.091 44.9917 184.091 45.8813ZM182.106 45.2809C182.095 44.5803 181.845 44.0187 181.356 43.5962C180.867 43.1736 180.26 42.9623 179.538 42.9623C178.882 42.9623 178.32 43.1736 177.853 43.5962C177.386 44.0076 177.108 44.5692 177.019 45.2809H182.106ZM189.299 50.852C188.576 50.852 187.925 50.7241 187.347 50.4684C186.78 50.2015 186.33 49.8457 185.996 49.4009C185.662 48.9449 185.484 48.439 185.462 47.883H187.43C187.464 48.2722 187.647 48.6002 187.981 48.8671C188.326 49.1229 188.754 49.2507 189.265 49.2507C189.799 49.2507 190.211 49.1507 190.5 48.9505C190.8 48.7392 190.95 48.4723 190.95 48.1498C190.95 47.8051 190.783 47.5494 190.45 47.3826C190.127 47.2158 189.61 47.0323 188.898 46.8321C188.209 46.6431 187.647 46.4596 187.214 46.2817C186.78 46.1037 186.402 45.8313 186.079 45.4643C185.768 45.0974 185.612 44.6137 185.612 44.0132C185.612 43.5239 185.757 43.0791 186.046 42.6788C186.335 42.2673 186.747 41.9448 187.28 41.7113C187.825 41.4778 188.448 41.361 189.149 41.361C190.194 41.361 191.033 41.6279 191.667 42.1617C192.312 42.6843 192.657 43.4016 192.701 44.3134H190.8C190.767 43.902 190.6 43.5739 190.299 43.3293C189.999 43.0846 189.593 42.9623 189.082 42.9623C188.581 42.9623 188.198 43.0568 187.931 43.2459C187.664 43.4349 187.531 43.6851 187.531 43.9965C187.531 44.2411 187.62 44.4469 187.797 44.6137C187.975 44.7805 188.192 44.9139 188.448 45.014C188.704 45.1029 189.082 45.2197 189.582 45.3643C190.249 45.5422 190.794 45.7257 191.217 45.9147C191.651 46.0926 192.023 46.3595 192.334 46.7154C192.646 47.0712 192.807 47.5438 192.818 48.1332C192.818 48.6558 192.674 49.1229 192.384 49.5343C192.095 49.9457 191.684 50.2682 191.15 50.5017C190.628 50.7353 190.01 50.852 189.299 50.852ZM198.209 50.852C197.486 50.852 196.835 50.7241 196.257 50.4684C195.69 50.2015 195.24 49.8457 194.906 49.4009C194.573 48.9449 194.395 48.439 194.372 47.883H196.341C196.374 48.2722 196.557 48.6002 196.891 48.8671C197.236 49.1229 197.664 49.2507 198.175 49.2507C198.709 49.2507 199.121 49.1507 199.41 48.9505C199.71 48.7392 199.86 48.4723 199.86 48.1498C199.86 47.8051 199.693 47.5494 199.36 47.3826C199.037 47.2158 198.52 47.0323 197.809 46.8321C197.119 46.6431 196.557 46.4596 196.124 46.2817C195.69 46.1037 195.312 45.8313 194.99 45.4643C194.678 45.0974 194.523 44.6137 194.523 44.0132C194.523 43.5239 194.667 43.0791 194.956 42.6788C195.245 42.2673 195.657 41.9448 196.191 41.7113C196.735 41.4778 197.358 41.361 198.059 41.361C199.104 41.361 199.944 41.6279 200.577 42.1617C201.222 42.6843 201.567 43.4016 201.612 44.3134H199.71C199.677 43.902 199.51 43.5739 199.21 43.3293C198.909 43.0846 198.504 42.9623 197.992 42.9623C197.492 42.9623 197.108 43.0568 196.841 43.2459C196.574 43.4349 196.441 43.6851 196.441 43.9965C196.441 44.2411 196.53 44.4469 196.708 44.6137C196.886 44.7805 197.102 44.9139 197.358 45.014C197.614 45.1029 197.992 45.2197 198.492 45.3643C199.16 45.5422 199.704 45.7257 200.127 45.9147C200.561 46.0926 200.933 46.3595 201.245 46.7154C201.556 47.0712 201.717 47.5438 201.728 48.1332C201.728 48.6558 201.584 49.1229 201.295 49.5343C201.006 49.9457 200.594 50.2682 200.06 50.5017C199.538 50.7353 198.921 50.852 198.209 50.852ZM211.936 50.8187C211.157 50.8187 210.457 50.6852 209.834 50.4183C209.211 50.1403 208.722 49.7511 208.366 49.2507C208.01 48.7503 207.832 48.1665 207.832 47.4993H209.867C209.912 47.9997 210.106 48.4112 210.451 48.7336C210.807 49.0561 211.302 49.2174 211.936 49.2174C212.592 49.2174 213.103 49.0617 213.47 48.7503C213.837 48.4278 214.021 48.0164 214.021 47.516C214.021 47.1268 213.904 46.8099 213.67 46.5652C213.448 46.3206 213.164 46.1316 212.82 45.9981C212.486 45.8647 212.019 45.7201 211.419 45.5644C210.662 45.3643 210.045 45.1641 209.567 44.9639C209.1 44.7527 208.7 44.4302 208.366 43.9965C208.033 43.5628 207.866 42.9846 207.866 42.2618C207.866 41.5946 208.033 41.0108 208.366 40.5103C208.7 40.0099 209.167 39.6263 209.767 39.3594C210.368 39.0925 211.063 38.9591 211.852 38.9591C212.975 38.9591 213.893 39.2427 214.604 39.8098C215.327 40.3658 215.728 41.1331 215.805 42.1116H213.704C213.67 41.6891 213.47 41.3277 213.103 41.0274C212.736 40.7272 212.253 40.5771 211.652 40.5771C211.107 40.5771 210.662 40.7161 210.318 40.9941C209.973 41.2721 209.801 41.6724 209.801 42.195C209.801 42.5509 209.906 42.8456 210.118 43.0791C210.34 43.3015 210.618 43.4794 210.952 43.6129C211.285 43.7463 211.741 43.8909 212.319 44.0465C213.087 44.2578 213.709 44.4691 214.187 44.6804C214.677 44.8917 215.088 45.2197 215.422 45.6645C215.767 46.0982 215.939 46.682 215.939 47.4159C215.939 48.0053 215.778 48.5613 215.455 49.0839C215.144 49.6066 214.682 50.0291 214.071 50.3516C213.47 50.663 212.759 50.8187 211.936 50.8187ZM222.169 50.852C221.302 50.852 220.518 50.6574 219.817 50.2682C219.117 49.8679 218.566 49.3119 218.166 48.6002C217.766 47.8774 217.565 47.0434 217.565 46.0982C217.565 45.1641 217.771 44.3357 218.183 43.6129C218.594 42.89 219.156 42.334 219.867 41.9448C220.579 41.5556 221.374 41.361 222.253 41.361C223.131 41.361 223.926 41.5556 224.638 41.9448C225.35 42.334 225.911 42.89 226.323 43.6129C226.734 44.3357 226.94 45.1641 226.94 46.0982C226.94 47.0323 226.728 47.8607 226.306 48.5835C225.883 49.3063 225.305 49.8679 224.571 50.2682C223.848 50.6574 223.048 50.852 222.169 50.852ZM222.169 49.2007C222.658 49.2007 223.114 49.0839 223.537 48.8504C223.971 48.6169 224.321 48.2666 224.588 47.7996C224.855 47.3325 224.988 46.7654 224.988 46.0982C224.988 45.431 224.86 44.8694 224.604 44.4135C224.349 43.9465 224.01 43.5962 223.587 43.3626C223.164 43.1291 222.709 43.0124 222.219 43.0124C221.73 43.0124 221.274 43.1291 220.851 43.3626C220.44 43.5962 220.112 43.9465 219.867 44.4135C219.623 44.8694 219.5 45.431 219.5 46.0982C219.5 47.0879 219.751 47.8552 220.251 48.4C220.762 48.9338 221.402 49.2007 222.169 49.2007ZM230.721 38.3586V50.7019H228.819V38.3586H230.721ZM241.541 41.5112V50.7019H239.639V49.6177C239.339 49.9958 238.944 50.296 238.455 50.5184C237.977 50.7297 237.465 50.8353 236.921 50.8353C236.198 50.8353 235.547 50.6852 234.969 50.385C234.402 50.0847 233.951 49.6399 233.618 49.0506C233.295 48.4612 233.134 47.7495 233.134 46.9155V41.5112H235.019V46.632C235.019 47.4548 235.225 48.0887 235.636 48.5335C236.048 48.9672 236.609 49.184 237.321 49.184C238.033 49.184 238.594 48.9672 239.006 48.5335C239.428 48.0887 239.639 47.4548 239.639 46.632V41.5112H241.541ZM246.268 43.0624V48.1498C246.268 48.4946 246.346 48.7448 246.502 48.9005C246.669 49.045 246.947 49.1173 247.336 49.1173H248.503V50.7019H247.002C246.146 50.7019 245.49 50.5017 245.034 50.1014C244.578 49.7011 244.35 49.0506 244.35 48.1498V43.0624H243.266V41.5112H244.35V39.226H246.268V41.5112H248.503V43.0624H246.268ZM251.223 40.2935C250.879 40.2935 250.59 40.1767 250.356 39.9432C250.123 39.7097 250.006 39.4206 250.006 39.0759C250.006 38.7311 250.123 38.442 250.356 38.2085C250.59 37.975 250.879 37.8582 251.223 37.8582C251.557 37.8582 251.841 37.975 252.074 38.2085C252.308 38.442 252.424 38.7311 252.424 39.0759C252.424 39.4206 252.308 39.7097 252.074 39.9432C251.841 40.1767 251.557 40.2935 251.223 40.2935ZM252.158 41.5112V50.7019H250.256V41.5112H252.158ZM258.641 50.852C257.773 50.852 256.989 50.6574 256.289 50.2682C255.588 49.8679 255.038 49.3119 254.637 48.6002C254.237 47.8774 254.037 47.0434 254.037 46.0982C254.037 45.1641 254.243 44.3357 254.654 43.6129C255.066 42.89 255.627 42.334 256.339 41.9448C257.05 41.5556 257.846 41.361 258.724 41.361C259.603 41.361 260.398 41.5556 261.109 41.9448C261.821 42.334 262.383 42.89 262.794 43.6129C263.205 44.3357 263.411 45.1641 263.411 46.0982C263.411 47.0323 263.2 47.8607 262.777 48.5835C262.355 49.3063 261.777 49.8679 261.043 50.2682C260.32 50.6574 259.519 50.852 258.641 50.852ZM258.641 49.2007C259.13 49.2007 259.586 49.0839 260.008 48.8504C260.442 48.6169 260.792 48.2666 261.059 47.7996C261.326 47.3325 261.46 46.7654 261.46 46.0982C261.46 45.431 261.332 44.8694 261.076 44.4135C260.82 43.9465 260.481 43.5962 260.058 43.3626C259.636 43.1291 259.18 43.0124 258.691 43.0124C258.201 43.0124 257.745 43.1291 257.323 43.3626C256.911 43.5962 256.583 43.9465 256.339 44.4135C256.094 44.8694 255.972 45.431 255.972 46.0982C255.972 47.0879 256.222 47.8552 256.722 48.4C257.234 48.9338 257.873 49.2007 258.641 49.2007ZM269.928 41.361C270.651 41.361 271.296 41.5112 271.863 41.8114C272.441 42.1116 272.892 42.5564 273.214 43.1458C273.536 43.7352 273.698 44.4469 273.698 45.2809V50.7019H271.813V45.5644C271.813 44.7415 271.607 44.1133 271.196 43.6796C270.784 43.2348 270.223 43.0124 269.511 43.0124C268.799 43.0124 268.232 43.2348 267.81 43.6796C267.398 44.1133 267.192 44.7415 267.192 45.5644V50.7019H265.291V41.5112H267.192V42.562C267.504 42.1839 267.899 41.8892 268.377 41.678C268.866 41.4667 269.383 41.361 269.928 41.361ZM279.459 50.852C278.736 50.852 278.086 50.7241 277.508 50.4684C276.941 50.2015 276.49 49.8457 276.157 49.4009C275.823 48.9449 275.645 48.439 275.623 47.883H277.591C277.624 48.2722 277.808 48.6002 278.142 48.8671C278.486 49.1229 278.914 49.2507 279.426 49.2507C279.96 49.2507 280.371 49.1507 280.66 48.9505C280.96 48.7392 281.111 48.4723 281.111 48.1498C281.111 47.8051 280.944 47.5494 280.61 47.3826C280.288 47.2158 279.771 47.0323 279.059 46.8321C278.37 46.6431 277.808 46.4596 277.374 46.2817C276.941 46.1037 276.563 45.8313 276.24 45.4643C275.929 45.0974 275.773 44.6137 275.773 44.0132C275.773 43.5239 275.918 43.0791 276.207 42.6788C276.496 42.2673 276.907 41.9448 277.441 41.7113C277.986 41.4778 278.609 41.361 279.309 41.361C280.354 41.361 281.194 41.6279 281.828 42.1617C282.473 42.6843 282.818 43.4016 282.862 44.3134H280.96C280.927 43.902 280.76 43.5739 280.46 43.3293C280.16 43.0846 279.754 42.9623 279.242 42.9623C278.742 42.9623 278.358 43.0568 278.092 43.2459C277.825 43.4349 277.691 43.6851 277.691 43.9965C277.691 44.2411 277.78 44.4469 277.958 44.6137C278.136 44.7805 278.353 44.9139 278.609 45.014C278.864 45.1029 279.242 45.2197 279.743 45.3643C280.41 45.5422 280.955 45.7257 281.378 45.9147C281.811 46.0926 282.184 46.3595 282.495 46.7154C282.806 47.0712 282.968 47.5438 282.979 48.1332C282.979 48.6558 282.834 49.1229 282.545 49.5343C282.256 49.9457 281.845 50.2682 281.311 50.5017C280.788 50.7353 280.171 50.852 279.459 50.852Z" fill="#545454"></path>
  <path d="M35.707 51.1377L20.0848 51.1377L20.0848 35.5155L35.707 35.5155L35.707 51.1377Z" fill="#0B5CDB"></path>
  <path d="M17.8535 34.1763L-0.000432968 34.1763L-0.000431407 16.3223L17.8535 16.3223L17.8535 34.1763Z" fill="#007DE4"></path>
  <path d="M22.7632 22.125L33.4756 22.125L33.4756 11.4126L22.7632 11.4126L22.7632 22.125Z" fill="#B000DB"></path>
</svg>
